# xmcd
#
# Track frame offsets:
#	150
#	16210
#	28522
#	48179
#	65184
#	79359
#	107313
#	121081
#	136450
#	150092
#
# Disc length: 2154 seconds
#
# Revision: 0
# Processed by: cddbd v1.5.2PL0 Copyright (c) Steve Scherf et al.
# Submitted via: VUPlayer 2.49
#
DISCID=7108680a
DTITLE=Slim Pickens - Happy Trails
DYEAR=2011
DGENRE=Blues
TTITLE0=My Creole Belle
TTITLE1=Alison Pearl
TTITLE2=Dust Can't Kill Me
TTITLE3=I Will Fly Away
TTITLE4=How Can You Keep On Moving
TTITLE5=Vigilante Man
TTITLE6=Tamp 'Em Up Solid
TTITLE7=Western Plains
TTITLE8=Can't Get That Stuff No More
TTITLE9=Crow Black Chicken
EXTD=
EXTT0=
EXTT1=
EXTT2=
EXTT3=
EXTT4=
EXTT5=
EXTT6=
EXTT7=
EXTT8=
EXTT9=
PLAYORDER=
